<svg width="14" height="14" viewBox="0 0 14 14" fill="none" xmlns="http://www.w3.org/2000/svg">
<path fill-rule="evenodd" clip-rule="evenodd" d="M2 6.33333C2 3.9401 3.9401 2 6.33333 2C8.72657 2 10.6667 3.9401 10.6667 6.33333C10.6667 7.49276 10.2113 8.54583 9.4697 9.3235C9.4432 9.3451 9.4175 9.3682 9.3928 9.3929C9.3681 9.4176 9.345 9.4432 9.3234 9.4698C8.54578 10.2113 7.49273 10.6667 6.33333 10.6667C3.9401 10.6667 2 8.72657 2 6.33333ZM10.0487 11.463C9.0051 12.2202 7.72134 12.6667 6.33333 12.6667C2.83553 12.6667 0 9.8311 0 6.33333C0 2.83553 2.83553 0 6.33333 0C9.8311 0 12.6667 2.83553 12.6667 6.33333C12.6667 7.72137 12.2201 9.0051 11.4629 10.0488L13.707 12.2929C14.0976 12.6834 14.0976 13.3166 13.707 13.7071C13.3165 14.0976 12.6834 14.0976 12.2928 13.7071L10.0487 11.463Z" fill="black"/>
</svg>
