<svg width="13" height="17" viewBox="0 0 13 17" fill="none" xmlns="http://www.w3.org/2000/svg">
<path d="M6.543 12.8311H3.65388V9.26218H6.543C7.90259 9.26218 8.49741 10.1969 8.49741 11.0466C8.49741 11.9813 7.81761 12.8311 6.543 12.8311ZM6.20311 3.14404C7.22279 3.14404 7.64767 3.90881 7.64767 4.67358C7.64767 5.69326 7.05285 6.20311 6.20311 6.20311H3.65388V3.14404H6.20311ZM9.09223 7.47772C10.9617 6.96788 11.3865 5.2684 11.3865 4.16373C11.3865 1.78446 9.5171 0 6.543 0H0V16.1451H6.96787C10.7917 16.1451 12.1513 13.6808 12.1513 11.4715C12.1513 9.60207 11.2166 7.73265 9.09223 7.47772Z" fill="#E20613"/>
</svg>
