<svg width="12" height="6" viewBox="0 0 12 6" fill="none" xmlns="http://www.w3.org/2000/svg">
<path d="M3.33333 0C2.44928 0 1.60143 0.3512 0.976313 0.976334C0.351189 1.6014 0 2.44927 0 3.33333V4.66667C0 5.03487 0.298477 5.33333 0.666667 5.33333C1.03485 5.33333 1.33333 5.03487 1.33333 4.66667V3.33333C1.33333 2.80293 1.54405 2.2942 1.91912 1.91913C2.29419 1.54407 2.8029 1.33333 3.33333 1.33333H8.66667C9.19707 1.33333 9.7058 1.54407 10.0809 1.91913C10.4559 2.2942 10.6667 2.80287 10.6667 3.33333V4.66667C10.6667 5.03487 10.9651 5.33333 11.3333 5.33333C11.7015 5.33333 12 5.03487 12 4.66667V3.33333C12 2.44927 11.6488 1.6014 11.0237 0.976334C10.3986 0.3512 9.55073 0 8.66667 0H3.33333Z" fill="black"/>
</svg>
