<svg width="14" height="13" viewBox="0 0 14 13" fill="none" xmlns="http://www.w3.org/2000/svg">
<path fill-rule="evenodd" clip-rule="evenodd" d="M5.64706 0C5.14783 0 4.66904 0.198315 4.31604 0.551322C3.96303 0.904339 3.7647 1.38312 3.7647 1.88235V2.5098H1.88235C0.842757 2.5098 0 3.35257 0 4.39215V10.6666C0 11.7062 0.842757 12.549 1.88235 12.549H11.9216C12.9612 12.549 13.8039 11.7062 13.8039 10.6666V4.39215C13.8039 3.35257 12.9612 2.5098 11.9216 2.5098H10.0392V1.88235C10.0392 1.38312 9.84091 0.904339 9.48788 0.551322C9.13484 0.198315 8.65606 0 8.15687 0H5.64706ZM8.78435 2.5098V1.88235C8.78435 1.71594 8.71818 1.55635 8.60054 1.43867C8.48287 1.32101 8.32327 1.2549 8.15687 1.2549H5.64706C5.48065 1.2549 5.32105 1.32101 5.20339 1.43867C5.08571 1.55635 5.0196 1.71594 5.0196 1.88235V2.5098H8.78435ZM5.0196 3.76471H8.78435V11.2941H5.0196V3.76471ZM3.7647 3.76471H1.88235C1.53582 3.76471 1.2549 4.04562 1.2549 4.39215V10.6666C1.2549 11.0132 1.53582 11.2941 1.88235 11.2941H3.7647V3.76471ZM10.0392 11.2941V3.76471H11.9216C12.2681 3.76471 12.5491 4.04562 12.5491 4.39215V10.6666C12.5491 11.0132 12.2681 11.2941 11.9216 11.2941H10.0392Z" fill="black"/>
</svg>
