<svg width="17" height="19" viewBox="0 0 17 19" fill="none" xmlns="http://www.w3.org/2000/svg">
<path fill-rule="evenodd" clip-rule="evenodd" d="M3.33333 7.5V5C3.33333 3.67392 3.86012 2.40215 4.7978 1.46447C5.73548 0.526783 7.00725 0 8.33333 0C9.65942 0 10.9312 0.526783 11.8688 1.46447C12.8066 2.40215 13.3333 3.67392 13.3333 5V7.5H14.1667C15.5474 7.5 16.6667 8.61925 16.6667 10V15.8333C16.6667 17.2141 15.5474 18.3333 14.1667 18.3333H2.5C1.11929 18.3333 0 17.2141 0 15.8333V10C0 8.61925 1.11929 7.5 2.5 7.5H3.33333ZM5.97631 2.64298C6.60143 2.01786 7.44925 1.66667 8.33333 1.66667C9.21742 1.66667 10.0652 2.01786 10.6903 2.64298C11.3155 3.2681 11.6667 4.11594 11.6667 5V7.5H5V5C5 4.11594 5.35119 3.2681 5.97631 2.64298ZM2.5 9.16667C2.03977 9.16667 1.66667 9.53975 1.66667 10V15.8333C1.66667 16.2936 2.03977 16.6667 2.5 16.6667H14.1667C14.6269 16.6667 15 16.2936 15 15.8333V10C15 9.53975 14.6269 9.16667 14.1667 9.16667H2.5Z" fill="black"/>
</svg>
