<svg width="17" height="17" viewBox="0 0 17 17" fill="none" xmlns="http://www.w3.org/2000/svg">
<path fill-rule="evenodd" clip-rule="evenodd" d="M1.66667 7.5C1.66667 4.27834 4.27834 1.66667 7.5 1.66667C10.7217 1.66667 13.3333 4.27834 13.3333 7.5C13.3333 9.0715 12.7119 10.4978 11.7014 11.5468C11.6728 11.5687 11.6452 11.5928 11.619 11.6191C11.5927 11.6453 11.5687 11.6728 11.5467 11.7015C10.4977 12.7119 9.07142 13.3333 7.5 13.3333C4.27834 13.3333 1.66667 10.7217 1.66667 7.5ZM12.1813 13.3599C10.8983 14.3863 9.27083 15 7.5 15C3.35787 15 0 11.6422 0 7.5C0 3.35787 3.35787 0 7.5 0C11.6422 0 15 3.35787 15 7.5C15 9.27083 14.3863 10.8984 13.3599 12.1814L16.4225 15.2441C16.7479 15.5695 16.7479 16.0972 16.4225 16.4226C16.0971 16.748 15.5694 16.748 15.244 16.4226L12.1813 13.3599Z" fill="black"/>
</svg>
