<svg width="4" height="7" viewBox="0 0 4 7" fill="none" xmlns="http://www.w3.org/2000/svg">
<path d="M0.832173 0.0209918C0.475506 -0.0703282 0.112307 0.144785 0.0209734 0.501472C-0.0702932 0.858152 0.144773 1.22134 0.501506 1.31266C0.931706 1.42281 1.31297 1.67301 1.58531 2.02382C1.85757 2.37462 2.00537 2.80608 2.00537 3.25016C2.00537 3.69425 1.85757 4.1257 1.58531 4.4765C1.31297 4.82731 0.931706 5.07751 0.501506 5.18766C0.144773 5.27896 -0.0702932 5.64216 0.0209734 5.99883C0.112307 6.35556 0.475506 6.57062 0.832173 6.47936C1.54924 6.29576 2.18471 5.87876 2.63857 5.29409C3.09237 4.7094 3.33871 3.9903 3.33871 3.25016C3.33871 2.51002 3.09237 1.79093 2.63857 1.20625C2.18471 0.621578 1.54924 0.204578 0.832173 0.0209918Z" fill="black"/>
</svg>
