<svg width="16" height="16" viewBox="0 0 16 16" fill="none" xmlns="http://www.w3.org/2000/svg">
<path d="M8.89837 5.55294V3.95294C9.27484 3.73334 9.65997 3.56863 10.0539 3.45882C10.4472 3.34902 10.8606 3.29412 11.2941 3.29412C11.5907 3.29412 11.8816 3.32549 12.1669 3.38824C12.4521 3.45098 12.7316 3.52941 13.0054 3.62353V5.12941C12.7316 4.98823 12.455 4.88251 12.1757 4.81224C11.896 4.74134 11.6022 4.70588 11.2941 4.70588C10.8606 4.70588 10.4442 4.78055 10.0449 4.92988C9.64566 5.07859 9.26345 5.28628 8.89837 5.55294ZM8.89837 10.7294V9.12941C9.27484 8.90981 9.65997 8.7451 10.0539 8.63529C10.4472 8.52549 10.8606 8.47059 11.2941 8.47059C11.5907 8.47059 11.8816 8.50196 12.1669 8.56471C12.4521 8.62745 12.7316 8.70588 13.0054 8.8V10.3059C12.7316 10.1647 12.455 10.059 12.1757 9.98871C11.896 9.91784 11.6022 9.88235 11.2941 9.88235C10.8606 9.88235 10.4442 9.95294 10.0449 10.0941C9.64566 10.2353 9.26345 10.4471 8.89837 10.7294ZM8.89837 8.14118V6.54118C9.27484 6.32157 9.65997 6.15687 10.0539 6.04706C10.4472 5.93725 10.8606 5.88235 11.2941 5.88235C11.5907 5.88235 11.8816 5.91372 12.1669 5.97647C12.4521 6.03922 12.7316 6.11765 13.0054 6.21176V7.71765C12.7316 7.57647 12.455 7.47075 12.1757 7.40047C11.896 7.32957 11.6022 7.29412 11.2941 7.29412C10.8606 7.29412 10.4442 7.36878 10.0449 7.51812C9.64566 7.66682 9.26345 7.87451 8.89837 8.14118ZM3.7647 11.2941C4.30089 11.2941 4.82293 11.3763 5.33082 11.5407C5.83826 11.7057 6.34296 11.9529 6.84492 12.2824V3.01176C6.37718 2.63529 5.88093 2.35294 5.35615 2.16471C4.83138 1.97647 4.30089 1.88235 3.7647 1.88235C3.35401 1.88235 2.94628 1.93725 2.54152 2.04706C2.1363 2.15687 1.74546 2.32157 1.36898 2.54118V11.8588C1.76827 11.6706 2.16482 11.5294 2.55863 11.4353C2.95199 11.3412 3.35401 11.2941 3.7647 11.2941ZM8.21391 12.2824C8.71587 11.9529 9.22081 11.7057 9.72867 11.5407C10.2362 11.3763 10.7579 11.2941 11.2941 11.2941C11.7048 11.2941 12.107 11.3412 12.5009 11.4353C12.8942 11.5294 13.2906 11.6706 13.6898 11.8588V2.54118C13.3133 2.32157 12.9227 2.15687 12.5179 2.04706C12.1128 1.93725 11.7048 1.88235 11.2941 1.88235C10.7579 1.88235 10.2275 1.97647 9.7027 2.16471C9.1779 2.35294 8.68161 2.63529 8.21391 3.01176V12.2824ZM7.52941 15.0588C6.98182 14.4628 6.38859 14 5.74974 13.6706C5.11088 13.3412 4.4492 13.1765 3.7647 13.1765C3.28556 13.1765 2.81508 13.2628 2.35329 13.4353C1.89103 13.6078 1.44884 13.851 1.02674 14.1647C0.787168 14.3372 0.55626 14.3294 0.334029 14.1412C0.111344 13.9529 0 13.6784 0 13.3176V1.97647C0 1.80392 0.031487 1.63922 0.0944602 1.48235C0.156975 1.32549 0.25098 1.20784 0.376467 1.12941C0.901248 0.752941 1.44884 0.470588 2.01925 0.282353C2.58966 0.0941177 3.17148 0 3.7647 0C4.42638 0 5.07392 0.117647 5.70729 0.352941C6.34022 0.588235 6.94759 0.941176 7.52941 1.41176C8.11123 0.941176 8.71879 0.588235 9.3522 0.352941C9.98514 0.117647 10.6325 0 11.2941 0C11.8874 0 12.4692 0.0941177 13.0395 0.282353C13.61 0.470588 14.1576 0.752941 14.6824 1.12941C14.8078 1.20784 14.902 1.32549 14.965 1.48235C15.0276 1.63922 15.0588 1.80392 15.0588 1.97647V13.3176C15.0588 13.6784 14.9477 13.9529 14.7255 14.1412C14.5028 14.3294 14.2716 14.3372 14.0321 14.1647C13.61 13.851 13.1678 13.6078 12.7055 13.4353C12.2438 13.2628 11.7733 13.1765 11.2941 13.1765C10.6096 13.1765 9.94797 13.3412 9.3091 13.6706C8.67023 14 8.077 14.4628 7.52941 15.0588Z" fill="black"/>
</svg>
